<svg width="120" height="120" viewBox="0 0 120 120" fill="none" xmlns="http://www.w3.org/2000/svg">
<g clip-path="url(#clip0_422_652)">
<path d="M103.8 60.0002C103.8 84.1898 83.2538 100.245 59.0642 100.245C34.8746 100.245 15.2642 80.6342 15.2642 56.4446C15.2642 32.255 35.8106 16.2002 60.0002 16.2002C84.1898 16.2002 103.8 35.8106 103.8 60.0002Z" fill="#FFE2E4"/>
<path d="M16.187 37.1738C16.187 37.1738 28.1558 54.9014 47.2202 57.023" stroke="#2E2E2E" stroke-miterlimit="10" stroke-linecap="round" stroke-linejoin="round"/>
<path d="M44.8691 11.9736C44.8691 11.9736 52.2551 22.7736 64.3319 26.4516C102.989 38.226 105.648 50.22 102.709 52.9692C101.891 53.7348 101.059 53.9832 100.318 53.976" stroke="#2E2E2E" stroke-miterlimit="10" stroke-linecap="round" stroke-linejoin="round"/>
<path d="M104.26 62.311C113.856 68.9866 120.705 76.3294 120.705 76.3294" stroke="#2E2E2E" stroke-miterlimit="10" stroke-linecap="round" stroke-linejoin="round"/>
<path d="M39.606 46.3308C44.478 53.4912 58.8576 53.9028 66.3708 56.1912C73.884 58.4796 80.5752 59.6544 82.1016 56.1912C83.628 52.728 81.3972 49.5 77.1708 47.5632C72.9444 45.6264 68.3664 44.0412 69.1296 41.3412C69.8928 38.6412 78.912 40.3044 89.7899 46.6428C92.8655 48.4356 96.6744 51.204 100.554 54.2532" stroke="#2E2E2E" stroke-miterlimit="10" stroke-linecap="round" stroke-linejoin="round"/>
<path d="M75.7837 58.296C82.5913 61.0428 80.3221 82.4868 95.8957 82.4868C105.287 82.4868 107.627 61.3248 100.555 54.2544" stroke="#2E2E2E" stroke-miterlimit="10" stroke-linecap="round" stroke-linejoin="round"/>
<path d="M50.3222 52.6416C48.3518 53.5308 48.425 56.4852 44.537 66.816C41.1134 75.9144 28.2782 80.61 26.5178 81.8424C24.7574 83.0748 25.109 86.6328 26.5178 90.7056C27.9662 93.8364 32.2694 96.1644 35.1458 96.6924C38.0222 97.2204 47.9414 99.8616 63.6722 84.1908" stroke="#2E2E2E" stroke-miterlimit="10" stroke-linecap="round" stroke-linejoin="round"/>
<path d="M60 70.2781C60.4824 66.8185 66.1956 68.3701 67.722 63.3589" stroke="#2E2E2E" stroke-miterlimit="10" stroke-linecap="round" stroke-linejoin="round"/>
<path d="M38.4517 97.1857C38.4517 97.1857 40.1161 100.565 45.3385 100.565C50.5609 100.565 60.6577 92.5633 64.7281 90.5281C68.7973 88.4929 74.4517 91.1737 78.0517 102.991" stroke="#2E2E2E" stroke-miterlimit="10" stroke-linecap="round" stroke-linejoin="round"/>
<path d="M25.8926 82.4869C28.1222 79.3561 34.4306 82.4569 33.365 86.0089C32.8958 87.5737 29.5418 85.8865 29.6882 88.2001C29.8454 90.6649 30.0902 91.1629 27.8534 92.0689" stroke="#2E2E2E" stroke-miterlimit="10" stroke-linecap="round" stroke-linejoin="round"/>
</g>
<defs>
<clipPath id="clip0_422_652">
<rect width="120" height="120" fill="white"/>
</clipPath>
</defs>
</svg>
