<svg width="120" height="120" viewBox="0 0 120 120" fill="none" xmlns="http://www.w3.org/2000/svg">
<path d="M60.0002 103.8C84.1903 103.8 103.8 84.1903 103.8 60.0002C103.8 35.8101 84.1903 16.2002 60.0002 16.2002C35.8101 16.2002 16.2002 35.8101 16.2002 60.0002C16.2002 84.1903 35.8101 103.8 60.0002 103.8Z" fill="#EAF6FB"/>
<path d="M72.4081 73.4653H54.4465C50.1313 73.4653 46.6333 69.9673 46.6333 65.6521V17.8117C46.6333 13.4965 50.1313 9.99854 54.4465 9.99854H72.4081C76.7233 9.99854 80.2213 13.4965 80.2213 17.8117V65.6521C80.2213 69.9673 76.7233 73.4653 72.4081 73.4653Z" stroke="#2E2E2E" stroke-miterlimit="10" stroke-linecap="round" stroke-linejoin="round"/>
<path d="M46.5458 23.7746C46.5458 23.7746 42.395 21.5486 40.0646 24.9386C37.7342 28.3286 39.7466 32.7794 46.5278 36.8054" stroke="#2E2E2E" stroke-miterlimit="10" stroke-linecap="round" stroke-linejoin="round"/>
<path d="M46.595 49.8538C46.595 49.8538 34.7666 42.9502 36.6734 37.123C38.5802 31.2959 46.595 36.7162 46.595 36.7162" stroke="#2E2E2E" stroke-miterlimit="10" stroke-linecap="round" stroke-linejoin="round"/>
<path d="M46.5455 49.9525C46.5455 49.9525 39.5843 43.9225 36.6731 48.9901C33.0071 55.3717 47.6927 64.8829 47.6927 64.8829" stroke="#2E2E2E" stroke-miterlimit="10" stroke-linecap="round" stroke-linejoin="round"/>
<path d="M59.9292 73.5322C59.9292 73.5322 66.5532 80.2462 69.414 84.697C72.2748 89.1466 80.2212 104.405 80.2212 104.405" stroke="#2E2E2E" stroke-miterlimit="10" stroke-linecap="round" stroke-linejoin="round"/>
<path d="M8.13623 83.4638C14.2502 74.6762 20.6906 66.0446 23.7926 63.875C30.6314 59.0918 32.771 64.4138 32.771 64.4138" stroke="#2E2E2E" stroke-miterlimit="10" stroke-linecap="round" stroke-linejoin="round"/>
<path d="M27.8027 69.936C27.8027 69.936 36.5351 55.7004 43.1627 67.3524" stroke="#2E2E2E" stroke-miterlimit="10" stroke-linecap="round" stroke-linejoin="round"/>
<path d="M53.3749 73.7461C53.3749 73.7461 56.4409 83.8357 54.8725 89.2573C53.3029 94.6789 46.1185 99.4189 40.8613 105.336" stroke="#2E2E2E" stroke-miterlimit="10" stroke-linecap="round" stroke-linejoin="round"/>
<path d="M75.1921 18.9707H51.6001V66.3071H75.1921V18.9707Z" stroke="#2E2E2E" stroke-miterlimit="10" stroke-linecap="round" stroke-linejoin="round"/>
<path d="M108.511 83.6366C108.511 83.6366 99.1873 69.4382 96.4321 64.6706C93.6769 59.903 93.2749 46.5218 89.4397 41.0426C86.4733 36.8042 82.1185 34.3646 77.5729 33.2018C73.0165 32.0366 67.2013 37.9766 74.4997 43.727C77.9965 46.4822 81.9877 50.5082 81.9877 50.5082" fill="#EAF6FB"/>
<path d="M108.511 83.6366C108.511 83.6366 99.1873 69.4382 96.4321 64.6706C93.6769 59.903 93.2749 46.5218 89.4397 41.0426C86.4733 36.8042 82.1185 34.3646 77.5729 33.2018C73.0165 32.0366 67.2013 37.9766 74.4997 43.727C77.9965 46.4822 81.9877 50.5082 81.9877 50.5082" stroke="#2E2E2E" stroke-miterlimit="10" stroke-linecap="round" stroke-linejoin="round"/>
<path d="M38.8057 71.9904C38.8057 71.9904 46.9057 61.164 51.7249 57.7692C56.5441 54.3744 61.8013 58.4244 58.6789 64.6164C55.5565 70.8084 49.0117 79.9344 45.8797 88.9176" fill="#EAF6FB"/>
<path d="M38.8057 71.9904C38.8057 71.9904 46.9057 61.164 51.7249 57.7692C56.5441 54.3744 61.8013 58.4244 58.6789 64.6164C55.5565 70.8084 49.0117 79.9344 45.8797 88.9176" stroke="#2E2E2E" stroke-miterlimit="10" stroke-linecap="round" stroke-linejoin="round"/>
</svg>
