<svg width="120" height="120" viewBox="0 0 120 120" fill="none" xmlns="http://www.w3.org/2000/svg">
<path d="M60 103.8C84.19 103.8 103.8 84.1903 103.8 60.0002C103.8 35.8101 84.19 16.2002 60 16.2002C35.8099 16.2002 16.2 35.8101 16.2 60.0002C16.2 84.1903 35.8099 103.8 60 103.8Z" fill="#FFD6C9"/>
<path d="M11.2849 72.9707C11.2849 72.9707 31.8073 59.7323 53.9773 63.4967C73.5997 66.8291 76.4545 64.3223 85.7905 60.2711C92.0833 57.5411 93.8545 64.1795 93.0769 66.3167" stroke="#2E2E2E" stroke-miterlimit="10" stroke-linecap="round" stroke-linejoin="round"/>
<path d="M97.1281 75.8497C102.04 69.2821 94.8853 64.8913 91.4317 66.9097C91.4317 66.9097 79.8277 72.9457 71.9221 73.7797" stroke="#2E2E2E" stroke-miterlimit="10" stroke-linecap="round" stroke-linejoin="round"/>
<path d="M73.5132 82.4963C73.5132 82.4963 82.8372 81.3059 90.144 76.6619C97.2492 72.1463 104.056 79.9283 96.3012 85.5911C89.1912 90.7835 80.4432 94.8623 56.4444 98.2919C34.0656 101.49 29.7324 104.504 26.3772 106.796" stroke="#2E2E2E" stroke-miterlimit="10" stroke-linecap="round" stroke-linejoin="round"/>
<path d="M36.8977 71.9555C36.8977 71.9555 41.7901 71.3542 48.0217 76.1938C52.2001 78.985 55.1065 78.2194 58.1245 76.7362C63.7141 73.9882 70.0309 81.4282 61.2385 87.535C52.4461 93.643 39.3013 94.9702 39.3013 94.9702" stroke="#2E2E2E" stroke-miterlimit="10" stroke-linecap="round" stroke-linejoin="round"/>
<path d="M30.9192 30.4213L59.2992 8.28613L88.5192 30.4213" stroke="#2E2E2E" stroke-miterlimit="10" stroke-linecap="round" stroke-linejoin="round"/>
<path d="M82.86 26.5537V54.8173H36.5784V26.5537" stroke="#2E2E2E" stroke-miterlimit="10" stroke-linecap="round" stroke-linejoin="round"/>
<path d="M55.2384 27.6382H45.9324V40.1614H55.2384V27.6382Z" stroke="#2E2E2E" stroke-miterlimit="10" stroke-linecap="round" stroke-linejoin="round"/>
<path d="M75.1656 36.6001H64.9404V54.6385H75.1656V36.6001Z" stroke="#2E2E2E" stroke-miterlimit="10" stroke-linecap="round" stroke-linejoin="round"/>
<path d="M45.9324 31.8325H55.2384" stroke="#2E2E2E" stroke-miterlimit="10" stroke-linecap="round" stroke-linejoin="round"/>
</svg>
