<svg width="24" height="24" viewBox="0 0 24 24" fill="none" xmlns="http://www.w3.org/2000/svg">
<path d="M19.6799 1.92004H4.31992C2.99512 1.92004 1.91992 2.99524 1.91992 4.32004V19.68C1.91992 21.0048 2.99512 22.08 4.31992 22.08H19.6799C21.0047 22.08 22.0799 21.0048 22.0799 19.68V4.32004C22.0799 2.99524 21.0047 1.92004 19.6799 1.92004ZM8.15992 9.60004V18.72H5.27992V9.60004H8.15992ZM5.27992 6.94564C5.27992 6.27364 5.85592 5.76004 6.71992 5.76004C7.58392 5.76004 8.12632 6.27364 8.15992 6.94564C8.15992 7.61764 7.62232 8.16004 6.71992 8.16004C5.85592 8.16004 5.27992 7.61764 5.27992 6.94564ZM18.7199 18.72H15.8399C15.8399 18.72 15.8399 14.2752 15.8399 13.92C15.8399 12.96 15.3599 12 14.1599 11.9808H14.1215C12.9599 11.9808 12.4799 12.9696 12.4799 13.92C12.4799 14.3568 12.4799 18.72 12.4799 18.72H9.59992V9.60004H12.4799V10.8288C12.4799 10.8288 13.4063 9.60004 15.2687 9.60004C17.1743 9.60004 18.7199 10.9104 18.7199 13.5648V18.72Z" fill="white"/>
</svg>
