<svg width="24" height="24" viewBox="0 0 24 24" fill="none" xmlns="http://www.w3.org/2000/svg">
<path d="M5.27992 1.92004C3.42424 1.92004 1.91992 3.42436 1.91992 5.28004V18.72C1.91992 20.5757 3.42424 22.08 5.27992 22.08H18.7199C20.5756 22.08 22.0799 20.5757 22.0799 18.72V5.28004C22.0799 3.42436 20.5756 1.92004 18.7199 1.92004H5.27992ZM6.28117 6.24004H10.0912L12.7968 10.0847L16.0799 6.24004H17.2799L13.3387 10.8544L18.1987 17.76H14.3896L11.2499 13.2994L7.43992 17.76H6.23992L10.708 12.5297L6.28117 6.24004ZM8.11867 7.20004L14.8902 16.8H16.3612L9.58961 7.20004H8.11867Z" fill="white"/>
</svg>
