<svg width="24" height="24" viewBox="0 0 24 24" fill="none" xmlns="http://www.w3.org/2000/svg">
<path d="M21.5512 6.95995C21.3599 5.90432 20.4487 5.13557 19.3912 4.89557C17.8087 4.55995 14.8799 4.31995 11.7112 4.31995C8.54432 4.31995 5.56869 4.55995 3.98432 4.89557C2.92869 5.13557 2.01557 5.85557 1.82432 6.95995C1.63119 8.15995 1.43994 9.83995 1.43994 11.9999C1.43994 14.1599 1.63119 15.8399 1.87119 17.0399C2.06432 18.0956 2.97557 18.8643 4.03119 19.1043C5.71119 19.4399 8.59119 19.6799 11.7599 19.6799C14.9287 19.6799 17.8087 19.4399 19.4887 19.1043C20.5443 18.8643 21.4556 18.1443 21.6487 17.0399C21.8399 15.8399 22.0799 14.1112 22.1287 11.9999C22.0312 9.83995 21.7912 8.15995 21.5512 6.95995ZM9.11994 15.3599V8.63995L14.9756 11.9999L9.11994 15.3599Z" fill="white"/>
</svg>
